#N canvas 651 134 450 300 10;
#X msg 31 148 sayhi;
#X floatatom 92 220 5 0 0 0 - - -, f 5;
#X obj 136 253 print;
#X msg 277 139 guile-reload;
#X msg 37 89 23;
#X msg 166 57 flululu aba bcb;
#X obj 130 178 guile script.scm;
#X msg 92 41 outlist;
#X obj 199 214 unpack 1 1 1;
#X floatatom 199 253 5 0 0 0 - - -, f 5;
#X floatatom 286 253 5 0 0 0 - - -, f 5;
#X floatatom 239 252 5 0 0 0 - - -, f 5;
#X msg 283 82 printsomething;
#X msg 117 83 sdfadf;
#X msg 258 27 post hi;
#X msg 182 109 thiscrashes 10 20;
#X msg 357 116 cwd;
#X msg 326 58 badoutput;
#X connect 0 0 6 0;
#X connect 3 0 6 0;
#X connect 4 0 6 0;
#X connect 5 0 6 0;
#X connect 6 0 1 0;
#X connect 6 0 2 0;
#X connect 6 0 8 0;
#X connect 7 0 6 0;
#X connect 8 0 9 0;
#X connect 8 1 11 0;
#X connect 8 2 10 0;
#X connect 12 0 6 0;
#X connect 13 0 6 0;
#X connect 14 0 6 0;
#X connect 15 0 6 0;
#X connect 16 0 6 0;
#X connect 17 0 6 0;
